<svg xmlns="http://www.w3.org/2000/svg" width="15" height="15" viewBox="0 0 15 15">
  <defs>
    <style>
      .cls-1 {
        fill: #7347c1;
        fill-rule: evenodd;
      }
    </style>
  </defs>
  <path id="Forma_1" data-name="Forma 1" class="cls-1" d="M829.167,981.666a7.5,7.5,0,1,0,7.5-7.5A7.5,7.5,0,0,0,829.167,981.666Zm0.577,0a6.919,6.919,0,0,1,.6-2.817l3.3,9.047A6.923,6.923,0,0,1,829.744,981.666Zm6.923,6.922a6.933,6.933,0,0,1-1.956-.281l2.077-6.034,2.128,5.828a0.652,0.652,0,0,0,.049.1A6.888,6.888,0,0,1,836.667,988.588Zm5.594-7.052a6.548,6.548,0,0,0,.527-2.478,5.1,5.1,0,0,0-.048-0.712,6.925,6.925,0,0,1-2.593,9.3Zm-1.493-2.128a3.647,3.647,0,0,1,.571,1.909,6.448,6.448,0,0,1-.527,2.238l-0.69,2.306-2.5-7.44c0.418-.022.792-0.066,0.792-0.066a0.286,0.286,0,0,0-.043-0.571s-1.122.089-1.846,0.089c-0.68,0-1.822-.089-1.822-0.089a0.286,0.286,0,0,0-.045.571s0.354,0.044.727,0.066l1.078,2.955-1.515,4.542-2.521-7.5c0.418-.022.793-0.066,0.793-0.066a0.286,0.286,0,0,0-.044-0.571s-1.121.089-1.846,0.089c-0.129,0-.282,0-0.445-0.008a6.919,6.919,0,0,1,10.457-1.3,0.867,0.867,0,0,0-.088-0.006,1.2,1.2,0,0,0-1.163,1.228A3.242,3.242,0,0,0,840.768,979.408Z" transform="translate(-829.156 -974.156)"/>
</svg>
