<svg id="lnr-cloud-download" viewBox="0 0 1024 1024">
							<title>cloud-download</title>
							<path class="path1"
								d="M819.52 819.2h-128.32c-14.139 0-25.6-11.461-25.6-25.6s11.461-25.6 25.6-25.6h128.32c84.518 0 153.28-68.762 153.28-153.28s-68.762-153.28-153.28-153.28c-18.005 0-35.626 3.086-52.368 9.173-11.168 4.056-23.654-0.099-30.163-10.035-6.507-9.938-5.323-23.048 2.859-31.659 18.154-19.106 28.152-44.15 28.152-70.518 0-56.464-45.936-102.4-102.4-102.4-32.858 0-62.912 15.187-82.456 41.667-11.704 15.859-18.533 34.638-19.746 54.307-0.67 10.867-8.141 20.122-18.622 23.069s-21.682-1.059-27.915-9.984l-0.238-0.342c-5.49-7.795-11.549-15.443-17.952-22.653-48.587-54.694-118.374-86.064-191.47-86.064-141.158 0-256 114.842-256 256 0 141.16 114.842 256 256 256h76.8c14.138 0 25.6 11.461 25.6 25.6s-11.462 25.6-25.6 25.6h-76.8c-169.39 0-307.2-137.81-307.2-307.2s137.81-307.2 307.2-307.2c82.050 0 160.621 32.933 218.142 90.901 4.47-9.989 10.026-19.52 16.608-28.438 28.867-39.112 75.090-62.462 123.65-62.462 84.696 0 153.6 68.904 153.6 153.6 0 17.976-3.099 35.542-9.035 52.050 3.11-0.139 6.23-0.21 9.357-0.21 112.75 0 204.48 91.73 204.48 204.48-0.002 112.75-91.731 204.48-204.482 204.48z">
							</path>
							<path class="path2"
								d="M658.101 673.099c-9.997-9.997-26.206-9.997-36.203 0l-58.698 58.696v-194.195c0-14.139-11.461-25.6-25.6-25.6s-25.6 11.461-25.6 25.6v194.195l-58.698-58.698c-9.998-9.997-26.206-9.997-36.205 0-9.997 9.997-9.997 26.206 0 36.203l102.4 102.4c5 5 11.55 7.499 18.102 7.499s13.102-2.499 18.101-7.499l102.4-102.4c9.998-9.997 9.998-26.205 0-36.202z">
							</path>
						</svg>